<?xml version="1.0" encoding="utf-8"?><!-- Uploaded to: SVG Repo, www.svgrepo.com, Generator: SVG Repo Mixer Tools -->
<svg width="800px" height="800px" viewBox="0 0 24 24" fill="none" xmlns="http://www.w3.org/2000/svg">
<rect x="4.14706" y="4.14706" width="15.7059" height="15.7059" rx="2.55882" stroke="#000000" stroke-width="1.70588"/>
<circle cx="8" cy="16" r="2" fill="#000000"/>
<path d="M7.99998 11C8.65659 11 9.30677 11.1293 9.91339 11.3806C10.52 11.6319 11.0712 12.0001 11.5355 12.4644C11.9998 12.9287 12.3681 13.4799 12.6194 14.0866C12.8706 14.6932 13 15.3434 13 16" stroke="#000000" stroke-width="2" stroke-linecap="round"/>
<path d="M8 7C9.1819 7 10.3522 7.23279 11.4442 7.68508C12.5361 8.13738 13.5282 8.80031 14.364 9.63604C15.1997 10.4718 15.8626 11.4639 16.3149 12.5558C16.7672 13.6478 17 14.8181 17 16" stroke="#000000" stroke-width="2" stroke-linecap="round"/>
</svg>