<?xml version="1.0" encoding="iso-8859-1"?>
<!-- Uploaded to: SVG Repo, www.svgrepo.com, Generator: SVG Repo Mixer Tools -->
<!DOCTYPE svg PUBLIC "-//W3C//DTD SVG 1.1//EN" "http://www.w3.org/Graphics/SVG/1.1/DTD/svg11.dtd">
<svg fill="#000000" version="1.1" id="Capa_1" xmlns="http://www.w3.org/2000/svg" xmlns:xlink="http://www.w3.org/1999/xlink" 
	 width="800px" height="800px" viewBox="0 0 452.551 452.551"
	 xml:space="preserve">
<g>
	<path d="M335.195,334.188c0,7.074-5.734,12.813-12.813,12.813H131.769c-7.076,0-12.819-5.739-12.819-12.813
		c0-7.077,5.739-12.816,12.819-12.816h190.613C329.461,321.376,335.195,327.115,335.195,334.188z M422.408,49.957v371.623
		c0,17.077-13.886,30.972-30.96,30.972H61.111c-17.078,0-30.968-13.895-30.968-30.972V49.957c0-17.081,13.891-30.971,30.968-30.971
		h33.284c2.405-7.535,6.31-13.79,12.558-16.922c15.623-7.828,34.288,8.553,42.881,16.922h20.264
		c2.402-7.535,6.308-13.79,12.556-16.922c15.623-7.828,34.292,8.553,42.883,16.922h25.085c2.396-7.535,6.303-13.79,12.557-16.922
		c15.617-7.828,34.289,8.553,42.875,16.922h23.402c2.396-7.535,6.309-13.79,12.56-16.922c15.628-7.828,34.285,8.553,42.877,16.922
		h6.556C408.522,18.985,422.408,32.876,422.408,49.957z M347.207,18.985h11.059c-5.94-3.267-8.443-2.353-8.854-2.151
		C348.596,17.237,347.871,17.989,347.207,18.985z M326.491,57.054c-2.568,2.501-4.166,5.981-4.166,9.836
		c0,7.587,6.173,13.76,13.77,13.76c7.583,0,13.755-6.173,13.755-13.76c0-5.078-2.791-9.463-6.882-11.853
		c0.257,4.384,0.688,8.786,1.3,12.999c0.652,4.517-2.477,8.703-6.991,9.359c-0.406,0.061-0.807,0.088-1.194,0.088
		c-4.039,0-7.573-2.963-8.162-7.075C327.471,67.341,326.889,62.603,326.491,57.054z M268.374,18.985h11.051
		c-5.942-3.267-8.436-2.353-8.852-2.151C269.756,17.237,269.022,17.989,268.374,18.985z M247.654,57.054
		c-2.569,2.501-4.167,5.981-4.167,9.836c0,7.587,6.17,13.76,13.766,13.76c7.583,0,13.756-6.173,13.756-13.76
		c0-5.078-2.789-9.463-6.884-11.853c0.258,4.384,0.691,8.786,1.303,12.999c0.658,4.517-2.479,8.703-6.993,9.359
		c-0.397,0.061-0.799,0.088-1.191,0.088c-4.04,0-7.574-2.963-8.166-7.075C248.629,67.341,248.044,62.603,247.654,57.054z
		 M187.848,18.985h11.063c-5.941-3.267-8.446-2.353-8.854-2.151C189.239,17.237,188.509,17.989,187.848,18.985z M167.131,57.054
		c-2.566,2.501-4.167,5.981-4.167,9.836c0,7.587,6.175,13.76,13.762,13.76s13.759-6.173,13.759-13.76
		c0-5.078-2.787-9.463-6.887-11.853c0.254,4.384,0.691,8.786,1.303,12.999c0.654,4.517-2.479,8.703-6.992,9.359
		c-0.401,0.061-0.803,0.088-1.197,0.088c-4.033,0-7.562-2.963-8.161-7.075C168.109,67.341,167.532,62.603,167.131,57.054z
		 M112.147,18.985h11.061c-5.94-3.267-8.443-2.353-8.854-2.151C113.536,17.237,112.808,17.989,112.147,18.985z M91.438,57.054
		c-2.566,2.501-4.17,5.981-4.17,9.836c0,7.587,6.175,13.76,13.762,13.76c7.588,0,13.762-6.173,13.762-13.76
		c0-5.078-2.79-9.463-6.887-11.853c0.252,4.384,0.69,8.786,1.3,12.999c0.656,4.517-2.476,8.703-6.994,9.359
		c-0.402,0.061-0.801,0.088-1.193,0.088c-4.034,0-7.564-2.963-8.164-7.075C92.406,67.341,91.83,62.603,91.438,57.054z
		 M401.768,49.957c0-5.694-4.627-10.323-10.319-10.323h-42.266c10.15,4.897,17.182,15.258,17.182,27.262
		c0,16.692-13.582,30.279-30.27,30.279c-16.702,0-30.283-13.582-30.283-30.279c0-12.003,7.031-22.364,17.182-27.262h-52.645
		c10.143,4.897,17.175,15.258,17.175,27.262c0,16.692-13.579,30.279-30.271,30.279c-16.701,0-30.28-13.582-30.28-30.279
		c0-12.003,7.037-22.364,17.18-27.262h-54.325c10.146,4.897,17.178,15.258,17.178,27.262c0,16.692-13.581,30.279-30.279,30.279
		c-16.698,0-30.282-13.582-30.282-30.279c0-12.003,7.037-22.364,17.185-27.262h-49.505c10.148,4.897,17.18,15.258,17.18,27.262
		c0,16.692-13.583,30.279-30.279,30.279c-16.692,0-30.279-13.582-30.279-30.279c0-12.003,7.036-22.364,17.185-27.262H61.106
		c-5.694,0-10.321,4.629-10.321,10.323v371.623c0,5.696,4.627,10.325,10.321,10.325h330.332c5.696,0,10.318-4.629,10.318-10.325
		V49.957H401.768z M322.382,233.277H131.769c-7.076,0-12.819,5.734-12.819,12.814c0,7.076,5.739,12.815,12.819,12.815h190.613
		c7.079,0,12.813-5.739,12.813-12.815C335.195,239.012,329.461,233.277,322.382,233.277z M352.82,145.172H99.736
		c-7.079,0-12.816,5.738-12.816,12.816c0,7.078,5.738,12.82,12.816,12.82H352.82c7.078,0,12.816-5.737,12.816-12.82
		C365.637,150.91,359.898,145.172,352.82,145.172z"/>
</g>
</svg>